<svg width="111" height="49" viewBox="0 0 111 49" fill="none" xmlns="http://www.w3.org/2000/svg">
<path d="M8.6 48.64C5.74133 48.64 3.62933 48.2133 2.264 47.36C0.898667 46.5067 0.216 45.5467 0.216 44.48C0.216 43.84 0.322667 43.0933 0.536 42.24C0.792 41.344 1.176 40.5333 1.688 39.808C2.37067 40.4053 3.24533 40.9173 4.312 41.344C5.42133 41.728 6.616 41.92 7.896 41.92C9.816 41.92 11.16 41.4293 11.928 40.448C12.696 39.4667 13.08 38.144 13.08 36.48C13.08 35.2853 12.8453 34.1547 12.376 33.088C11.9493 32.0213 11.1387 30.72 9.944 29.184L3.928 21.504C2.47733 19.584 1.496 17.92 0.984 16.512C0.472 15.0613 0.216 13.6107 0.216 12.16C0.216 9.30133 1.15467 6.99733 3.032 5.248C4.952 3.456 7.768 2.56 11.48 2.56C14.6373 2.56 16.856 2.88 18.136 3.52C19.416 4.16 20.056 4.992 20.056 6.016C20.056 6.57067 19.928 7.168 19.672 7.808C19.4587 8.448 19.0747 9.088 18.52 9.728C18.136 9.42933 17.3893 9.13066 16.28 8.832C15.2133 8.49067 14.0187 8.32 12.696 8.32C11.032 8.32 9.70933 8.64 8.728 9.28C7.74667 9.87733 7.256 10.7733 7.256 11.968C7.256 13.0347 7.46933 13.9947 7.896 14.848C8.32267 15.7013 8.96267 16.704 9.816 17.856L16.216 25.728C17.7947 27.6907 18.84 29.4827 19.352 31.104C19.9067 32.6827 20.184 34.4107 20.184 36.288C20.184 38.4213 19.8427 40.4267 19.16 42.304C18.4773 44.1813 17.304 45.7173 15.64 46.912C13.976 48.064 11.6293 48.64 8.6 48.64ZM32.77 48.64C31.106 48.64 29.634 48.4267 28.354 48C27.074 47.616 26.0073 46.848 25.154 45.696C24.3433 44.5013 23.7247 42.816 23.298 40.64C22.8713 38.4213 22.658 35.52 22.658 31.936C22.658 26.1333 23.5967 21.9307 25.474 19.328C27.3513 16.6827 29.954 15.36 33.282 15.36C35.586 15.36 37.4633 15.8293 38.914 16.768C40.4073 17.664 41.4953 19.3067 42.178 21.696C42.9033 24.0853 43.266 27.4347 43.266 31.744C43.266 37.8453 42.37 42.1973 40.578 44.8C38.8287 47.36 36.226 48.64 32.77 48.64ZM32.962 43.2C33.5593 43.2 34.0927 42.944 34.562 42.432C35.0313 41.92 35.394 40.8533 35.65 39.232C35.9487 37.6107 36.098 35.1573 36.098 31.872C36.098 28.7147 35.9913 26.3467 35.778 24.768C35.6073 23.1467 35.3087 22.08 34.882 21.568C34.4553 21.056 33.858 20.8 33.09 20.8C32.45 20.8 31.874 21.0773 31.362 21.632C30.8927 22.1867 30.5087 23.2747 30.21 24.896C29.954 26.4747 29.826 28.8213 29.826 31.936C29.826 34.4533 29.89 36.48 30.018 38.016C30.1887 39.552 30.3807 40.6827 30.594 41.408C30.85 42.1333 31.17 42.624 31.554 42.88C31.9807 43.0933 32.45 43.2 32.962 43.2ZM47.0555 48V18.24C48.2075 17.4293 49.5302 16.7467 51.0235 16.192C52.5595 15.6373 54.1808 15.36 55.8875 15.36C57.5942 15.36 58.7462 15.616 59.3435 16.128C59.9408 16.5973 60.2395 17.344 60.2395 18.368C60.2395 18.7947 60.1968 19.3707 60.1115 20.096C60.0262 20.7787 59.8342 21.4827 59.5355 22.208C59.1088 21.9947 58.6822 21.8453 58.2555 21.76C57.8288 21.6747 57.4022 21.632 56.9755 21.632C56.5062 21.632 55.9728 21.7387 55.3755 21.952C54.7782 22.1227 54.2448 22.4 53.7755 22.784L53.7115 46.784C53.7115 47.2107 53.6048 47.5093 53.3915 47.68C53.2208 47.808 52.6662 47.8933 51.7275 47.936C50.8315 47.9787 49.2742 48 47.0555 48ZM70.6955 48.64C69.0742 48.64 67.6662 48.4267 66.4715 48C65.2768 47.5733 64.2742 46.8053 63.4635 45.696C62.6955 44.544 62.1195 42.9227 61.7355 40.832C61.3515 38.7413 61.1595 36.032 61.1595 32.704C61.1595 28.864 61.5008 25.792 62.1835 23.488C62.9088 21.184 63.8262 19.456 64.9355 18.304C66.0448 17.1093 67.2608 16.32 68.5835 15.936C69.9488 15.552 71.2928 15.36 72.6155 15.36C74.1515 15.36 75.4102 15.6373 76.3915 16.192C77.4155 16.7467 77.9275 17.5147 77.9275 18.496C77.9275 18.9227 77.8848 19.456 77.7995 20.096C77.7142 20.6933 77.5435 21.3333 77.2875 22.016C76.7755 21.8027 76.1355 21.6107 75.3675 21.44C74.6422 21.2267 73.8955 21.12 73.1275 21.12C72.5302 21.12 71.9115 21.248 71.2715 21.504C70.6742 21.7173 70.1195 22.2293 69.6075 23.04C69.1382 23.808 68.7542 24.96 68.4555 26.496C68.1568 28.032 68.0075 30.08 68.0075 32.64C68.0075 34.6027 68.0715 36.2453 68.1995 37.568C68.3702 38.8907 68.6475 39.936 69.0315 40.704C69.4155 41.472 69.9062 42.0267 70.5035 42.368C71.1008 42.7093 71.8475 42.88 72.7435 42.88C73.5542 42.88 74.3648 42.7733 75.1755 42.56C75.9862 42.3467 76.6475 42.0907 77.1595 41.792C77.3728 42.5173 77.5222 43.1573 77.6075 43.712C77.6928 44.224 77.7355 44.736 77.7355 45.248C77.7355 46.272 77.0742 47.104 75.7515 47.744C74.4288 48.3413 72.7435 48.64 70.6955 48.64ZM89.5825 48.64C87.9185 48.64 86.4465 48.4267 85.1665 48C83.8865 47.616 82.8198 46.848 81.9665 45.696C81.1558 44.5013 80.5372 42.816 80.1105 40.64C79.6838 38.4213 79.4705 35.52 79.4705 31.936C79.4705 26.1333 80.4092 21.9307 82.2865 19.328C84.1638 16.6827 86.7665 15.36 90.0945 15.36C92.3985 15.36 94.2758 15.8293 95.7265 16.768C97.2198 17.664 98.3078 19.3067 98.9905 21.696C99.7158 24.0853 100.079 27.4347 100.079 31.744C100.079 37.8453 99.1825 42.1973 97.3905 44.8C95.6412 47.36 93.0385 48.64 89.5825 48.64ZM89.7745 43.2C90.3718 43.2 90.9052 42.944 91.3745 42.432C91.8438 41.92 92.2065 40.8533 92.4625 39.232C92.7612 37.6107 92.9105 35.1573 92.9105 31.872C92.9105 28.7147 92.8038 26.3467 92.5905 24.768C92.4198 23.1467 92.1212 22.08 91.6945 21.568C91.2678 21.056 90.6705 20.8 89.9025 20.8C89.2625 20.8 88.6865 21.0773 88.1745 21.632C87.7052 22.1867 87.3212 23.2747 87.0225 24.896C86.7665 26.4747 86.6385 28.8213 86.6385 31.936C86.6385 34.4533 86.7025 36.48 86.8305 38.016C87.0012 39.552 87.1932 40.6827 87.4065 41.408C87.6625 42.1333 87.9825 42.624 88.3665 42.88C88.7932 43.0933 89.2625 43.2 89.7745 43.2ZM103.868 48V3.84C103.868 2.85866 104.039 2.176 104.38 1.792C104.764 1.408 105.425 1.17333 106.364 1.088C107.303 1.00267 108.647 0.959999 110.396 0.959999V46.784C110.396 47.2107 110.311 47.5093 110.14 47.68C109.969 47.808 109.415 47.8933 108.476 47.936C107.58 47.9787 106.044 48 103.868 48Z" fill="#00A5FF"/>
</svg>
